<svg width="153" height="46" viewBox="0 0 153 46" fill="none" xmlns="http://www.w3.org/2000/svg">
<rect x="0.5" y="0.5" width="151.966" height="44.1221" rx="6.5" stroke="white"/>
<path d="M49.701 9.56225V14.8044H51.5129C53.0835 14.8044 54.005 13.835 54.005 12.1813C54.005 10.5316 53.0793 9.56225 51.5129 9.56225H49.701ZM50.3594 10.151H51.4682C52.6404 10.151 53.331 10.9061 53.331 12.1896C53.331 13.4679 52.6477 14.2167 51.4692 14.2167H50.3594V10.151ZM55.8055 14.8055V9.56225H55.1471V14.8044H55.8055V14.8055ZM56.8997 13.4356C56.9693 14.3405 57.7421 14.9282 58.8613 14.9282C60.0689 14.9282 60.8344 14.3145 60.8344 13.3514C60.8344 12.5817 60.3955 12.1594 59.3002 11.8869L58.749 11.7413C58.0199 11.5561 57.7297 11.32 57.7297 10.9092C57.7297 10.3787 58.1956 10.0303 58.8977 10.0303C59.5571 10.0303 60.0034 10.3507 60.0949 10.8884H60.7574C60.7023 10.0417 59.9409 9.43848 58.9196 9.43848C57.8035 9.43848 57.0536 10.0417 57.0536 10.9321C57.0536 11.6768 57.4676 12.1053 58.4224 12.3456L59.0985 12.5193C59.8276 12.7013 60.1573 12.9842 60.1573 13.4315C60.1573 13.9515 59.6341 14.3322 58.9237 14.3322C58.1738 14.3322 57.6465 13.9838 57.5664 13.4356H56.8997ZM61.9317 9.56225V14.8044H62.5912V12.9343H63.9194C64.9106 12.9343 65.6179 12.2405 65.6179 11.2597C65.6179 10.2612 64.9262 9.56329 63.9267 9.56329H61.9317V9.56225ZM62.5912 10.1437H63.755C64.5195 10.1437 64.9408 10.5389 64.9408 11.2587C64.9408 11.9524 64.5039 12.3529 63.755 12.3529H62.5901V10.1426L62.5912 10.1437ZM68.915 9.43848C67.4214 9.43848 66.4916 10.4952 66.4916 12.1813C66.4916 13.86 67.3996 14.9282 68.915 14.9282C70.4232 14.9282 71.3385 13.8569 71.3385 12.1823C71.3385 10.4994 70.4159 9.43848 68.915 9.43848ZM68.915 10.0417C69.9947 10.0417 70.6603 10.8697 70.6603 12.1813C70.6603 13.4824 69.9978 14.3249 68.915 14.3249C67.8167 14.3249 67.1697 13.4824 67.1697 12.1823C67.1697 10.8697 67.8385 10.0417 68.915 10.0417ZM73.1306 14.8055V10.7386H73.1899L76.0554 14.8055H76.6961V9.56225H76.044V13.6426H75.9857L73.1202 9.56225H72.4795V14.8044H73.1306V14.8055ZM78.7014 14.8055V9.56225H78.042V14.8044H78.7014V14.8055ZM78.6754 9.08172L79.5574 8H78.767L78.119 9.08172H78.6754ZM82.2253 14.8055L84.1724 9.56225H83.4808L81.9289 13.9588H81.8707L80.3188 9.56225H79.6271L81.5742 14.8044H82.2253V14.8055ZM88.3714 14.2167H85.7576V12.4142H88.2351V11.8328H85.7576V10.151H88.3703V9.56225H85.0981V14.8044H88.3703L88.3714 14.2167ZM92.77 14.2167H90.2217V9.56225H89.5633V14.8044H92.77V14.2167ZM96.5903 14.8055V10.7386H96.6486L99.5141 14.8055H100.155V9.56225H99.5037V13.6426H99.4454L96.5779 9.56225H95.9382V14.8044H96.5893L96.5903 14.8055ZM103.719 9.43848C102.227 9.43848 101.297 10.4952 101.297 12.1813C101.297 13.86 102.205 14.9282 103.72 14.9282C105.227 14.9282 106.143 13.8569 106.143 12.1823C106.143 10.4994 105.22 9.43848 103.719 9.43848ZM103.719 10.0417C104.799 10.0417 105.466 10.8697 105.466 12.1813C105.466 13.4824 104.803 14.3249 103.719 14.3249C102.622 14.3249 101.974 13.4824 101.974 12.1823C101.974 10.8697 102.644 10.0417 103.719 10.0417ZM76.7481 24.1571C74.1967 24.1571 72.1779 26.0699 72.1779 28.7263C72.1737 29.3278 72.2881 29.9241 72.5169 30.4807C72.7447 31.0372 73.0807 31.5428 73.5061 31.9681C73.9315 32.3934 74.437 32.7299 74.9945 32.958C75.5509 33.186 76.1469 33.3011 76.7481 33.2966C79.2985 33.2966 81.3173 31.3828 81.3173 28.7263C81.3173 25.9638 79.2985 24.1571 76.7481 24.1571ZM76.7481 31.3838C75.3658 31.3838 74.1967 30.2147 74.1967 28.6202C74.1967 27.0268 75.3658 25.8577 76.7481 25.8577C78.1294 25.8577 79.2985 26.9196 79.2985 28.6202C79.2985 30.2147 78.1304 31.3838 76.7481 31.3838ZM66.8629 24.1571C64.3125 24.1571 62.2937 26.0699 62.2937 28.7263C62.2895 29.3278 62.4039 29.9241 62.6328 30.4807C62.8605 31.0372 63.1965 31.5428 63.6219 31.9681C64.0473 32.3934 64.5528 32.7299 65.1103 32.958C65.6668 33.186 66.2627 33.3011 66.8639 33.2966C69.4143 33.2966 71.4331 31.3828 71.4331 28.7263C71.4331 25.9638 69.4143 24.1571 66.8629 24.1571ZM66.8629 31.3838C65.4816 31.3838 64.3125 30.2147 64.3125 28.6202C64.3125 27.0268 65.4816 25.8577 66.8639 25.8577C68.2452 25.8577 69.4143 26.9196 69.4143 28.6202C69.4143 30.2147 68.2452 31.3838 66.8629 31.3838ZM55.0659 25.5384V27.4522H59.6362C59.5301 28.5131 59.1057 29.3639 58.5732 29.8964C57.9356 30.533 56.8726 31.2767 55.0659 31.2767C52.1963 31.2767 50.0703 29.0456 50.0703 26.176C50.0703 23.3063 52.3024 21.0752 55.0659 21.0752C56.5533 21.0752 57.7234 21.7128 58.5732 22.4565L59.9555 21.0752C58.7864 20.0123 57.298 19.1614 55.172 19.1614C51.3465 19.1614 48.0514 22.3504 48.0514 26.176C48.0514 30.0015 51.3465 33.1894 55.172 33.1894C57.298 33.1894 58.7864 32.5518 60.0606 31.1716C61.3368 29.8954 61.7622 28.0887 61.7622 26.7075C61.7622 26.282 61.7622 25.8577 61.6561 25.5384H55.0659ZM103.318 27.0257C102.893 25.9638 101.83 24.1571 99.4922 24.1571C97.1541 24.1571 95.2403 25.9638 95.2403 28.7263C95.2403 31.2767 97.1541 33.2966 99.7044 33.2966C101.724 33.2966 102.999 32.0214 103.425 31.2767L101.937 30.2147C101.406 30.9584 100.767 31.4899 99.7044 31.4899C98.6414 31.4899 98.0038 31.0645 97.4723 30.1086L103.531 27.5572L103.318 27.0257ZM97.1541 28.5131C97.1541 26.8135 98.5353 25.8577 99.4922 25.8577C100.236 25.8577 100.98 26.282 101.193 26.8146L97.1541 28.5131ZM92.1584 32.8712H94.1783V19.5879H92.1574L92.1584 32.8712ZM88.9705 25.113C88.439 24.5825 87.5882 24.051 86.5262 24.051C84.2941 24.051 82.1681 26.0699 82.1681 28.6202C82.1681 31.1706 84.187 33.0833 86.5262 33.0833C87.5882 33.0833 88.439 32.5529 88.8633 32.0214H88.9705V32.659C88.9705 34.3585 88.0136 35.3154 86.5262 35.3154C85.3561 35.3154 84.5063 34.4656 84.2941 33.7209L82.5935 34.4656C83.124 35.6337 84.4002 37.1221 86.6323 37.1221C88.9705 37.1221 90.8832 35.7408 90.8832 32.4457V24.3693H88.9694L88.9705 25.113ZM86.6323 31.3838C85.25 31.3838 84.0809 30.2147 84.0809 28.6202C84.0809 27.0268 85.25 25.8577 86.6323 25.8577C88.0136 25.8577 89.0766 27.0257 89.0766 28.6202C89.0766 30.2147 88.0136 31.3838 86.6323 31.3838ZM112.564 19.5868H107.782V32.8701H109.802V27.8765H112.564C114.796 27.8765 116.922 26.282 116.922 23.7317C116.922 21.1813 114.796 19.5868 112.564 19.5868ZM112.672 25.9627H109.801V21.3925H112.672C114.159 21.3925 115.009 22.6677 115.009 23.6246C114.903 24.7936 114.053 25.9627 112.672 25.9627ZM124.894 24.0489C123.405 24.0489 121.917 24.6876 121.387 26.0688L123.193 26.8125C123.618 26.0688 124.255 25.8556 125 25.8556C126.063 25.8556 127.019 26.4942 127.125 27.5562V27.6633C126.807 27.4501 125.956 27.1318 125.106 27.1318C123.193 27.1318 121.279 28.1938 121.279 30.1065C121.279 31.9132 122.874 33.0823 124.575 33.0823C125.956 33.0823 126.594 32.4447 127.125 31.8071H127.232V32.8701H129.145V27.7694C128.933 25.4312 127.125 24.0489 124.894 24.0489ZM124.681 31.3817C124.043 31.3817 123.086 31.0634 123.086 30.2137C123.086 29.1507 124.255 28.8314 125.212 28.8314C126.063 28.8314 126.487 29.0446 127.019 29.2578C126.807 30.5319 125.744 31.3828 124.681 31.3828V31.3817ZM135.84 24.3682L133.609 30.1076H133.502L131.164 24.3682H129.039L132.546 32.4447L130.526 36.9078H132.546L137.966 24.3682H135.84ZM117.985 32.8701H120.004V19.5879H117.985V32.8701ZM15 33.9341V10.4484C15 10.1312 15.026 9.841 15.0915 9.58929C15.1154 9.49776 15.1435 9.41247 15.1789 9.33238L28.2323 22.3067L15.2756 35.0824C15.2756 35.0824 15 34.3814 15 33.9341ZM33.6607 18.165L38.3828 20.8631C39.8701 21.7128 39.8701 23.0951 38.3828 23.9449L33.2446 26.7189C33.2446 26.7189 29.8601 23.3032 28.9843 22.3983L33.6607 18.165ZM15.6293 35.7003C16.141 36.0518 16.816 36.0061 17.6544 35.6337L32.6809 26.9893L28.5412 22.7394C27.0986 24.1009 15.6282 35.6992 15.6282 35.6992L15.6293 35.7003ZM33.177 17.7823L17.6596 8.9621C16.7027 8.43061 16.0682 8.42437 15.5357 8.95482L28.5984 21.9115L33.177 17.7823Z" fill="white"/>
<path d="M33.0643 26.6016L17.6541 35.3156C16.8032 35.8471 16.0596 35.741 15.5281 35.3156L15.422 35.4217L15.5281 35.5288C16.0596 35.9532 16.8032 36.0593 17.6541 35.5288L33.0643 26.6016Z" fill="white"/>
<path d="M15.4244 35.3162C15.1061 34.9969 15 34.4664 15 33.8288V33.9341C15 34.5717 15.2122 35.103 15.5305 35.4223V35.3162H15.4244ZM38.3817 23.6264L33.0667 26.6011L33.1739 26.7082L38.3817 23.7335C39.1254 23.3071 39.4447 22.7766 39.4447 22.2451C39.4447 22.7756 39.0193 23.202 38.3817 23.6264Z" fill="white"/>
<path d="M17.6564 9.06726L38.3817 20.8632C39.0193 21.2896 39.4447 21.7136 39.4447 22.2451C39.4447 21.7136 39.1254 21.1825 38.3817 20.7581L17.6564 8.96011C16.1691 8.11138 15 8.74886 15 10.4484V10.5557C15 8.96115 16.1691 8.21643 17.6564 9.06726Z" fill="white"/>
</svg>
