<svg width="146" height="46" viewBox="0 0 146 46" fill="none" xmlns="http://www.w3.org/2000/svg">
<rect x="1.46582" y="0.5" width="143.161" height="44.1231" rx="6.5" stroke="white"/>
<path d="M33.6453 22.2776C33.6572 21.3378 33.9072 20.4163 34.3717 19.5993C34.8362 18.7823 35.5002 18.0963 36.3017 17.6054C35.7923 16.8786 35.1202 16.2806 34.3392 15.859C33.5581 15.4374 32.6894 15.2038 31.8022 15.1768C29.9092 14.9792 28.0744 16.3074 27.1102 16.3074C26.1273 16.3074 24.6421 15.1965 23.0434 15.2298C22.0096 15.2632 21.0021 15.5635 20.1185 16.1012C19.2349 16.6391 18.5055 17.3963 18.0009 18.2992C15.8209 22.0675 17.4476 27.6051 19.5351 30.6505C20.5804 32.142 21.8015 33.8083 23.3991 33.7501C24.9624 33.6845 25.5459 32.7536 27.4337 32.7536C29.3028 32.7536 29.8509 33.749 31.4808 33.7116C33.1585 33.6845 34.2163 32.2138 35.2242 30.7077C35.9746 29.6452 36.5521 28.4705 36.9351 27.2275C35.9616 26.8159 35.1306 26.1272 34.5457 25.2468C33.9607 24.3665 33.6476 23.3346 33.6453 22.2776ZM30.5655 13.1735C31.4803 12.0778 31.931 10.6682 31.8219 9.24501C30.425 9.39136 29.1342 10.0583 28.2065 11.1131C27.7534 11.6278 27.4063 12.2269 27.1849 12.876C26.9636 13.5252 26.8725 14.2115 26.9168 14.8959C27.6156 14.903 28.3069 14.7518 28.9389 14.4535C29.5707 14.1552 30.1269 13.7175 30.5655 13.1735ZM53.4009 29.9776H48.0652L46.7848 33.7542H44.5246L49.5785 19.7803H51.9261L56.98 33.7542H54.6813L53.4009 29.9776ZM48.6185 28.2343H52.8476L50.7622 22.105H50.7039L48.6185 28.2343ZM67.8949 28.6587C67.8949 31.8248 66.1974 33.8593 63.6356 33.8593C62.9877 33.893 62.3428 33.7437 61.7749 33.4284C61.207 33.1133 60.7389 32.6448 60.4248 32.0765H60.377V37.1231H58.2822V23.5642H60.3104V25.2586H60.3478C60.6765 24.6925 61.1519 24.2261 61.7239 23.9088C62.296 23.5916 62.944 23.4355 63.5972 23.4571C66.187 23.4571 67.8949 25.502 67.8949 28.6587ZM65.7419 28.6587C65.7419 26.5962 64.6737 25.2399 63.0449 25.2399C61.4441 25.2399 60.3676 26.6242 60.3676 28.6587C60.3676 30.7119 61.4441 32.0859 63.0449 32.0859C64.6737 32.0859 65.7419 30.74 65.7419 28.6587ZM79.1187 28.6587C79.1187 31.8248 77.4213 33.8593 74.8595 33.8593C74.2115 33.893 73.5666 33.7437 72.9987 33.4284C72.4308 33.1133 71.9628 32.6448 71.6487 32.0765H71.6008V37.1221H69.506V23.5642H71.5343V25.2586H71.5717C71.9004 24.6924 72.3757 24.226 72.9478 23.9087C73.5198 23.5915 74.1678 23.4354 74.821 23.4571C77.4109 23.4571 79.1187 25.502 79.1187 28.6587ZM76.9657 28.6587C76.9657 26.5962 75.8975 25.2399 74.2687 25.2399C72.668 25.2399 71.5915 26.6242 71.5915 28.6587C71.5915 30.7119 72.668 32.0859 74.2687 32.0859C75.8975 32.0859 76.9657 30.74 76.9657 28.6587ZM86.5431 29.858C86.698 31.2444 88.046 32.1535 89.8891 32.1535C91.6542 32.1535 92.9252 31.2444 92.9252 29.9942C92.9252 28.9104 92.1586 28.2603 90.3447 27.8152L88.5307 27.3783C85.9606 26.7595 84.7676 25.5592 84.7676 23.6121C84.7676 21.2011 86.8717 19.5452 89.86 19.5452C92.8181 19.5452 94.8452 21.2011 94.9139 23.6121H92.7983C92.6714 22.2183 91.5169 21.3758 89.8298 21.3758C88.1417 21.3758 86.9872 22.2277 86.9872 23.4665C86.9872 24.4546 87.7257 25.037 89.5292 25.4812L91.0717 25.8598C93.9424 26.5369 95.1365 27.6893 95.1365 29.7331C95.1365 32.348 93.05 33.9851 89.7331 33.9851C86.6284 33.9851 84.5325 32.3854 84.3973 29.858H86.5431ZM99.662 21.1533V23.5653H101.602V25.2211H99.663V30.8377C99.663 31.7104 100.051 32.1171 100.904 32.1171C101.135 32.1129 101.365 32.0963 101.593 32.0682V33.7147C101.21 33.7865 100.82 33.8187 100.43 33.8114C98.3639 33.8114 97.5589 33.0365 97.5589 31.0603V25.2211H96.0746V23.5653H97.5578V21.1533H99.662ZM102.726 28.6587C102.726 25.4531 104.617 23.4394 107.566 23.4394C110.525 23.4394 112.408 25.4531 112.408 28.6587C112.408 31.8726 110.535 33.879 107.566 33.879C104.598 33.879 102.726 31.8737 102.726 28.6587ZM110.273 28.6587C110.273 26.4599 109.264 25.1618 107.566 25.1618C105.869 25.1618 104.862 26.4703 104.862 28.6587C104.862 30.8669 105.869 32.1545 107.566 32.1545C109.263 32.1545 110.273 30.8669 110.273 28.6597V28.6587ZM114.133 23.5642H116.13V25.2981H116.179C116.314 24.7557 116.632 24.2765 117.079 23.9411C117.526 23.6057 118.075 23.4348 118.634 23.4571C118.875 23.4571 119.116 23.4821 119.351 23.5351V25.4905C119.047 25.3982 118.729 25.3559 118.411 25.3657C117.953 25.3471 117.501 25.4781 117.124 25.739C116.747 25.9998 116.465 26.3763 116.32 26.8115C116.225 27.1004 116.192 27.4066 116.227 27.7091V33.7521H114.133V23.5642ZM129.011 30.7608C128.729 32.6101 126.924 33.879 124.616 33.879C121.648 33.879 119.805 31.8924 119.805 28.7076C119.805 25.5113 121.657 23.4394 124.528 23.4394C127.352 23.4394 129.127 25.3751 129.127 28.4642V29.1819H121.919V29.3067C121.885 29.6821 121.932 30.0603 122.057 30.4161C122.18 30.7718 122.38 31.0968 122.64 31.3692C122.9 31.6427 123.214 31.8576 123.564 31.9996C123.912 32.1417 124.288 32.2077 124.664 32.193C125.159 32.2391 125.655 32.1245 126.08 31.8663C126.504 31.6081 126.835 31.2202 127.021 30.7597L129.011 30.7608ZM121.93 27.7195H127.032C127.051 27.3822 127 27.0446 126.882 26.728C126.764 26.4114 126.582 26.1229 126.346 25.8806C126.111 25.6375 125.828 25.4458 125.515 25.3172C125.202 25.1887 124.866 25.1263 124.528 25.1338C124.188 25.1313 123.85 25.1964 123.534 25.3254C123.218 25.4542 122.931 25.6444 122.69 25.8848C122.449 26.1253 122.256 26.4112 122.126 26.7261C121.996 27.041 121.929 27.3786 121.93 27.7195ZM45.8435 8.45973V13.7674H47.6564C49.228 13.7674 50.1516 12.7856 50.1516 11.112C50.1516 9.44159 49.2249 8.45973 47.6564 8.45973H45.8435ZM46.5029 9.05571H47.6127C48.7849 9.05571 49.4776 9.8202 49.4776 11.1193C49.4776 12.4142 48.7922 13.1714 47.6127 13.1714H46.5029V9.05571ZM51.2281 13.7674H51.8585V9.80251H51.2292L51.2281 13.7674ZM51.5433 9.03699C51.6556 9.02932 51.7596 8.97951 51.8366 8.89766C51.9125 8.81579 51.9552 8.70797 51.9552 8.59598C51.9552 8.484 51.9125 8.37618 51.8366 8.29431C51.7596 8.21245 51.6556 8.16265 51.5433 8.15498C51.432 8.16265 51.327 8.21245 51.251 8.29431C51.1741 8.37618 51.1314 8.484 51.1314 8.59598C51.1314 8.70797 51.1741 8.81579 51.251 8.89766C51.327 8.97951 51.432 9.02932 51.5433 9.03699ZM52.9693 10.8874C52.9693 11.4615 53.3063 11.7818 54.0458 11.9618L54.724 12.1272C55.1452 12.2301 55.3501 12.4142 55.3501 12.6857C55.3501 13.0497 54.9694 13.3035 54.4379 13.3035C53.9324 13.3035 53.6173 13.0903 53.5112 12.7554H52.8622C52.9319 13.4138 53.5372 13.8371 54.4161 13.8371C55.3137 13.8371 55.9991 13.3483 55.9991 12.6379C55.9991 12.0679 55.6393 11.7444 54.8966 11.5645L54.2882 11.4168C53.8222 11.3024 53.6027 11.1339 53.6027 10.8613C53.6027 10.5077 53.9688 10.2685 54.4379 10.2685C54.9143 10.2685 55.2222 10.4796 55.3064 10.7958H55.9295C55.8452 10.1447 55.27 9.73283 54.4421 9.73283C53.6027 9.73283 52.9693 10.229 52.9693 10.8874ZM58.9115 9.73283C58.3727 9.73283 57.9005 10.0085 57.6477 10.464H57.5884V9.80251H56.9883V15.0915H57.6176V13.1714H57.6768C57.8932 13.5906 58.3467 13.8371 58.9115 13.8371C59.9152 13.8371 60.5715 13.0248 60.5715 11.785C60.5715 10.5379 59.9193 9.73283 58.9115 9.73283ZM58.7606 13.2671C58.0502 13.2671 57.5999 12.693 57.5999 11.785C57.5999 10.8728 58.0502 10.3028 58.7648 10.3028C59.4866 10.3028 59.9193 10.8582 59.9193 11.785C59.9193 12.7117 59.4866 13.2671 58.7606 13.2671ZM63.1832 13.8371C64.3076 13.8371 65.0034 13.057 65.0034 11.785C65.0034 10.5087 64.3076 9.73283 63.1832 9.73283C62.0578 9.73283 61.363 10.5087 61.363 11.785C61.363 13.057 62.0578 13.8371 63.1832 13.8371ZM63.1832 13.2671C62.4353 13.2671 62.0141 12.7231 62.0141 11.785C62.0141 10.8437 62.4353 10.3028 63.1832 10.3028C63.93 10.3028 64.3512 10.8437 64.3512 11.785C64.3512 12.7231 63.931 13.2671 63.1832 13.2671ZM65.9925 13.7674H66.6228V11.4209C66.6228 10.7251 67.0295 10.3028 67.6598 10.3028C68.2901 10.3028 68.5907 10.6408 68.5907 11.3544V13.7674H69.221V11.2004C69.221 10.2581 68.726 9.73283 67.8398 9.73283C67.2355 9.73283 66.8506 9.98973 66.653 10.4276H66.5937V9.80251H65.9925V13.7674ZM70.3891 13.7674H71.0194V9.80251H70.3891V13.7674ZM70.9903 9.25021L71.8369 8H71.0818L70.4338 9.25021H70.9903ZM75.4451 9.80251H74.7711L73.6904 13.0685H73.6322L72.5504 9.80251H71.8764L73.3389 13.7674H73.9837L75.4451 9.80251ZM77.7167 10.2914C78.3428 10.2914 78.7609 10.7553 78.7755 11.4573H76.5996C76.6474 10.7553 77.0864 10.2914 77.7167 10.2914ZM78.7568 12.7408C78.5925 13.0903 78.2471 13.2786 77.7385 13.2786C77.0676 13.2786 76.6318 12.7814 76.5996 11.9982V11.9691H79.4391V11.7257C79.4391 10.4942 78.7901 9.73283 77.7239 9.73283C76.6391 9.73283 75.9433 10.542 75.9433 11.7881C75.9433 13.0425 76.6287 13.8371 77.7239 13.8371C78.5883 13.8371 79.204 13.4179 79.3881 12.7408H78.7568ZM80.4647 13.7674H81.095V8.22778H80.4647V13.7674ZM84.4358 13.7674H85.0661V11.4209C85.0661 10.7251 85.4717 10.3028 86.1031 10.3028C86.7334 10.3028 87.033 10.6408 87.033 11.3544V13.7674H87.6633V11.2004C87.6633 10.2581 87.1692 9.73283 86.282 9.73283C85.6777 9.73283 85.2939 9.98973 85.0952 10.4276H85.037V9.80251H84.4358V13.7674ZM90.0337 13.2817C89.576 13.2817 89.2349 13.0466 89.2349 12.642C89.2349 12.2447 89.4991 12.0346 90.1002 11.994L91.1622 11.9243V12.2884C91.1622 12.8552 90.6817 13.2817 90.0337 13.2817ZM89.9161 13.8371C90.4445 13.8371 90.8762 13.6052 91.1331 13.1818H91.1913V13.7674H91.7925V11.0527C91.7925 10.229 91.2537 9.73179 90.2906 9.73179C89.4481 9.73179 88.824 10.152 88.7408 10.7885H89.3784C89.4658 10.4755 89.7955 10.2955 90.2687 10.2955C90.8585 10.2955 91.1622 10.5639 91.1622 11.0527V11.4136L90.0222 11.4833C89.1028 11.5385 88.5827 11.9472 88.5827 12.6566C88.5827 13.3815 89.1506 13.8371 89.9161 13.8371Z" fill="white"/>
</svg>
