<svg width="33" height="32" viewBox="0 0 33 32" fill="none" xmlns="http://www.w3.org/2000/svg">
<path d="M14.3476 16.0859C14.3476 14.8843 15.3211 13.9099 16.5224 13.9099C17.7236 13.9099 18.6976 14.8843 18.6976 16.0859C18.6976 17.2875 17.7236 18.2618 16.5224 18.2618C15.3211 18.2618 14.3476 17.2875 14.3476 16.0859ZM13.1717 16.0859C13.1717 17.937 14.6718 19.4375 16.5224 19.4375C18.3729 19.4375 19.873 17.937 19.873 16.0859C19.873 14.2347 18.3729 12.7342 16.5224 12.7342C14.6718 12.7342 13.1717 14.2347 13.1717 16.0859ZM19.2226 12.6013C19.2226 12.7562 19.2684 12.9077 19.3544 13.0365C19.4404 13.1654 19.5627 13.2658 19.7057 13.3251C19.8488 13.3845 20.0062 13.4001 20.1581 13.3699C20.31 13.3397 20.4496 13.2652 20.5591 13.1557C20.6687 13.0462 20.7433 12.9067 20.7736 12.7547C20.8039 12.6028 20.7884 12.4453 20.7292 12.3022C20.67 12.159 20.5697 12.0366 20.4409 11.9505C20.3122 11.8644 20.1608 11.8184 20.006 11.8183H20.0057C19.7981 11.8184 19.599 11.9009 19.4522 12.0477C19.3054 12.1945 19.2228 12.3936 19.2226 12.6013ZM13.8861 21.3989C13.25 21.3699 12.9042 21.2639 12.6744 21.1744C12.3697 21.0557 12.1523 20.9144 11.9238 20.6861C11.6953 20.4578 11.5538 20.2406 11.4357 19.9359C11.3461 19.7061 11.2402 19.3601 11.2112 18.7237C11.1796 18.0357 11.1733 17.829 11.1733 16.0859C11.1733 14.3428 11.1801 14.1367 11.2112 13.4481C11.2402 12.8117 11.347 12.4664 11.4357 12.236C11.5543 11.9312 11.6956 11.7138 11.9238 11.4852C12.152 11.2566 12.3692 11.1151 12.6744 10.9969C12.9041 10.9073 13.25 10.8013 13.8861 10.7724C14.574 10.7408 14.7806 10.7344 16.5224 10.7344C18.2641 10.7344 18.471 10.7413 19.1594 10.7724C19.7955 10.8014 20.1408 10.9082 20.3711 10.9969C20.6758 11.1151 20.8931 11.2569 21.1217 11.4852C21.3502 11.7135 21.4912 11.9312 21.6098 12.236C21.6994 12.4657 21.8053 12.8117 21.8343 13.4481C21.8659 14.1367 21.8722 14.3428 21.8722 16.0859C21.8722 17.829 21.8659 18.0351 21.8343 18.7237C21.8053 19.3601 21.6988 19.706 21.6098 19.9359C21.4912 20.2406 21.3499 20.458 21.1217 20.6861C20.8935 20.9142 20.6758 21.0557 20.3711 21.1744C20.1414 21.264 19.7955 21.37 19.1594 21.3989C18.4715 21.4305 18.2649 21.4369 16.5224 21.4369C14.7798 21.4369 14.5737 21.4305 13.8861 21.3989ZM13.8321 9.59812C13.1375 9.62977 12.6628 9.73995 12.2482 9.9013C11.8189 10.0679 11.4555 10.2915 11.0923 10.6542C10.7292 11.0169 10.5063 11.381 10.3397 11.8104C10.1784 12.2254 10.0682 12.6999 10.0366 13.3948C10.0044 14.0908 9.99707 14.3133 9.99707 16.0859C9.99707 17.8585 10.0044 18.081 10.0366 18.7769C10.0682 19.4718 10.1784 19.9464 10.3397 20.3613C10.5063 20.7905 10.7292 21.155 11.0923 21.5175C11.4554 21.8801 11.8189 22.1033 12.2482 22.2704C12.6636 22.4318 13.1375 22.542 13.8321 22.5736C14.5282 22.6052 14.7503 22.6131 16.5224 22.6131C18.2944 22.6131 18.5168 22.6058 19.2126 22.5736C19.9073 22.542 20.3817 22.4318 20.7965 22.2704C21.2255 22.1033 21.5892 21.8802 21.9524 21.5175C22.3156 21.1548 22.538 20.7905 22.705 20.3613C22.8663 19.9464 22.977 19.4718 23.0081 18.7769C23.0398 18.0804 23.0471 17.8585 23.0471 16.0859C23.0471 14.3133 23.0398 14.0908 23.0081 13.3948C22.9765 12.6999 22.8663 12.2251 22.705 11.8104C22.538 11.3813 22.315 11.0175 21.9524 10.6542C21.5898 10.2909 21.2255 10.0679 20.797 9.9013C20.3817 9.73995 19.9073 9.62924 19.2131 9.59812C18.5174 9.56648 18.2949 9.55859 16.5229 9.55859C14.7508 9.55859 14.5282 9.56596 13.8321 9.59812Z" fill="white"/>
</svg>
