<svg width="32" height="32" viewBox="0 0 32 32" fill="none" xmlns="http://www.w3.org/2000/svg">
<g clip-path="url(#clip0_1765_2375)">
<path d="M21.8223 9.24609H9.98325C9.44077 9.24609 9 9.69302 9 10.2417V22.0591C9 22.6078 9.44077 23.0547 9.98325 23.0547H21.8223C22.3647 23.0547 22.8086 22.6078 22.8086 22.0591V10.2417C22.8086 9.69302 22.3647 9.24609 21.8223 9.24609ZM13.1734 21.082H11.1268V14.4921H13.1765V21.082H13.1734ZM12.1501 13.5921C11.4936 13.5921 10.9634 13.0589 10.9634 12.4054C10.9634 11.752 11.4936 11.2188 12.1501 11.2188C12.8035 11.2188 13.3368 11.752 13.3368 12.4054C13.3368 13.062 12.8066 13.5921 12.1501 13.5921ZM20.8452 21.082H18.7986V17.8765C18.7986 17.1121 18.7831 16.1288 17.7352 16.1288C16.6687 16.1288 16.5053 16.961 16.5053 17.821V21.082H14.4587V14.4921H16.4221V15.3922H16.4499C16.7242 14.8743 17.393 14.3288 18.3886 14.3288C20.4599 14.3288 20.8452 15.6942 20.8452 17.4696V21.082Z" fill="white"/>
</g>
<defs>
<clipPath id="clip0_1765_2375">
<rect width="15.7812" height="15.7812" fill="white" transform="translate(8.28125 8.12305)"/>
</clipPath>
</defs>
</svg>
