<svg width="81" height="18" viewBox="0 0 81 18" fill="none" xmlns="http://www.w3.org/2000/svg">
<g clip-path="url(#clip0_1765_2313)">
<path d="M10.1033 2.42694C10.4448 2.0789 10.8977 1.88779 11.3796 1.88779C11.8614 1.88779 12.3143 2.0789 12.6559 2.42694C12.9959 2.77342 13.1835 3.23488 13.185 3.72741C13.185 4.2184 12.9974 4.68141 12.6559 5.02789L8.78276 8.97438L10.0896 10.3059L13.9627 6.35945C14.4171 5.89643 14.7449 5.32 14.9111 4.69073C15.0773 4.06147 15.0773 3.39492 14.9111 2.76254C14.7464 2.13328 14.4201 1.55529 13.9642 1.09228C13.5098 0.629264 12.9441 0.29521 12.3265 0.125853C11.7105 -0.0419505 11.0548 -0.0419505 10.4311 0.125853C9.81355 0.29521 9.24783 0.629264 8.79343 1.09228L8.78276 1.10315L10.0926 2.43626L10.1033 2.42538V2.42694Z" fill="white"/>
<path d="M1.07315 6.35945L1.08382 6.37032L2.39061 5.03877L2.37994 5.02789C2.03837 4.67986 1.85082 4.2184 1.85082 3.72741C1.85082 3.23643 2.03837 2.77497 2.37842 2.42694C2.71998 2.0789 3.17286 1.88779 3.65471 1.88779C4.13657 1.88779 4.58945 2.0789 4.93101 2.42694L8.80413 6.37343L10.114 5.04032L6.24238 1.09228C5.78798 0.629263 5.22226 0.29521 4.6047 0.125853C3.98103 -0.0419509 3.32535 -0.0419509 2.70931 0.125853C2.09174 0.29521 1.52603 0.629263 1.07162 1.09228C0.617215 1.55529 0.289373 2.13328 0.124689 2.76254C-0.0415197 3.39647 -0.0415197 4.06302 0.124689 4.69073C0.290897 5.31999 0.61874 5.89643 1.07315 6.35945Z" fill="white"/>
<path d="M14.9111 10.6291C14.7449 9.99985 14.417 9.42342 13.9626 8.9604L13.952 8.94953L12.6436 10.2826L12.6543 10.2935C13.3573 11.0098 13.3573 12.1766 12.6543 12.8945C11.9498 13.6107 10.8062 13.6107 10.1017 12.8945L6.23013 8.94953L4.92333 10.2811L8.79492 14.226C9.24781 14.689 9.81505 15.0231 10.4326 15.1924C10.7422 15.2763 11.0609 15.3183 11.3795 15.3183C11.6982 15.3183 12.0169 15.2763 12.3265 15.1924C12.944 15.0246 13.5113 14.6921 13.9657 14.2276C14.4201 13.7646 14.7479 13.1881 14.9141 12.5589C15.0804 11.9265 15.0804 11.2584 14.9141 10.6276L14.9111 10.6291Z" fill="white"/>
<path d="M4.93403 12.8945C4.22955 13.6107 3.08591 13.6107 2.38143 12.8945C1.67848 12.1766 1.67848 11.0113 2.38143 10.2935L6.25302 6.34857L4.94318 5.01391L1.07311 8.9604C0.618707 9.42342 0.290865 9.99985 0.124656 10.6291C-0.0415521 11.2615 -0.0415521 11.9296 0.124656 12.562C0.290865 13.1912 0.618707 13.7677 1.07311 14.2307C1.52752 14.6937 2.09476 15.0277 2.71233 15.1956C3.02187 15.2795 3.34056 15.3214 3.65926 15.3214C3.97795 15.3214 4.29664 15.2795 4.60619 15.1956C5.22375 15.0262 5.78947 14.6921 6.24388 14.2291L6.25455 14.2183L4.94775 12.8867L4.93708 12.8976L4.93403 12.8945Z" fill="white"/>
<path d="M25.8046 1.76172C22.549 1.76172 20.187 4.18865 20.187 7.5323C20.187 10.8759 22.5063 13.3029 25.8274 13.3029C29.1485 13.3029 31.4907 10.9288 31.4907 7.5323C31.4907 4.13583 29.0998 1.76172 25.8046 1.76172ZM25.8274 11.1494C23.5615 11.1494 22.5307 9.27403 22.5307 7.5323C22.5307 5.79056 23.6637 3.89189 25.8274 3.89189C27.9912 3.89189 29.1242 5.74239 29.1242 7.5323C29.1242 9.3222 28.0918 11.1494 25.8274 11.1494Z" fill="white"/>
<path d="M42.0834 2.04297H39.2319L36.8776 6.17125L34.5247 2.04297H31.6733L35.2963 7.48882L31.4644 13.0947H34.3036L36.8776 9.04722L39.453 13.0947H42.2908L38.4604 7.48882L42.0834 2.04297Z" fill="white"/>
<path d="M49.7249 1.78516C48.6148 1.78516 47.1159 2.24351 46.2437 3.53L45.9036 4.03186L45.6734 2.04152H43.4883V17.9036H45.832V11.1899L46.2483 11.844C46.9649 12.9721 48.5615 13.3745 49.8164 13.3745C53.0948 13.3745 55.2967 11.0454 55.2967 7.57904C55.2967 4.11265 52.953 1.78516 49.7249 1.78516ZM49.5191 11.0796C47.5612 11.0796 46.0836 9.57559 46.0836 7.57904C46.0836 5.58249 47.4956 4.08003 49.5191 4.08003C51.5425 4.08003 52.953 5.51879 52.953 7.57904C52.953 9.6393 51.477 11.0796 49.5191 11.0796Z" fill="white"/>
<path d="M65.8004 4.1871L65.4222 3.51433C64.8352 2.46556 63.4674 1.76172 62.0188 1.76172H61.9654C58.5573 1.76172 56.3555 4.03639 56.3555 7.55716C56.3555 9.40766 56.8983 10.9303 57.9261 11.9589C58.8974 12.9315 60.2698 13.4458 61.8952 13.4458H61.9471C63.2341 13.4225 64.8382 12.7606 65.4146 11.544L65.7745 10.7843L65.9635 13.0962H68.1654V2.04294H65.9239L65.8004 4.1871ZM64.9205 10.1177C64.2771 10.8837 63.3606 11.2892 62.2734 11.2892C60.1706 11.2892 58.7007 9.75414 58.7007 7.5556C58.7007 5.35707 60.1691 3.84528 62.2734 3.84528C63.9721 3.84528 65.8004 5.01058 65.8004 7.56648C65.8004 8.53601 65.4878 9.44184 64.9205 10.1162V10.1177Z" fill="white"/>
<path d="M74.5787 9.42477L73.7293 6.86266L72.0627 2.04297H69.3042L73.406 12.3318L74.5787 9.42477Z" fill="white"/>
<path d="M78.4653 2.04297L75.4629 9.48381L75.0084 10.7159L74.9886 10.6569L72.064 17.9051H74.2963L81.0011 2.04297H78.4653Z" fill="white"/>
</g>
<defs>
<clipPath id="clip0_1765_2313">
<rect width="81" height="17.9053" fill="white"/>
</clipPath>
</defs>
</svg>
